<svg xmlns="http://www.w3.org/2000/svg" xmlns:xlink="http://www.w3.org/1999/xlink" viewBox="0 0 341.19 341.19"><defs><clipPath id="a"><rect width="341.19" height="341.19" transform="translate(341.19 341.19) rotate(180)" style="fill:none"/></clipPath><clipPath id="b"><rect x="-387.69" width="341.19" height="341.19" transform="translate(-434.19 341.19) rotate(180)" style="fill:none"/></clipPath></defs><rect width="341.19" height="341.19" style="fill:#ffb68f"/><g style="clip-path:url(#a)"><path d="M129.2,11.83a61.25,61.25,0,0,0,43.54-44.68,61.25,61.25,0,0,0-18.15-59.68" style="fill:none;stroke:#ffc3a3;stroke-linecap:round;stroke-linejoin:round;stroke-width:2px"/><path d="M129.2,11.83A61.31,61.31,0,0,0,103.82,116.2" style="fill:none;stroke:#ffc3a3;stroke-linecap:round;stroke-linejoin:round;stroke-width:2px"/><path d="M78.43,220.57A61.3,61.3,0,0,0,103.82,116.2" style="fill:none;stroke:#ffc3a3;stroke-linecap:round;stroke-linejoin:round;stroke-width:2px"/><path d="M27.66,429.3A61.3,61.3,0,0,0,53.05,324.93" style="fill:none;stroke:#ffc3a3;stroke-linecap:round;stroke-linejoin:round;stroke-width:2px"/><path d="M78.43,220.57A61.3,61.3,0,0,0,53.05,324.93" style="fill:none;stroke:#ffc3a3;stroke-linecap:round;stroke-linejoin:round;stroke-width:2px"/><path d="M25.22-15.63A61.3,61.3,0,0,0-.17,88.74" style="fill:none;stroke:#ffc3a3;stroke-linecap:round;stroke-linejoin:round;stroke-width:2px"/><path d="M-25.55,193.1A61.27,61.27,0,0,0,18,148.42,61.25,61.25,0,0,0-.17,88.74" style="fill:none;stroke:#ffc3a3;stroke-linecap:round;stroke-linejoin:round;stroke-width:2px"/><path d="M233.19,39.3A61.29,61.29,0,0,0,276.73-5.38a61.27,61.27,0,0,0-18.15-59.69" style="fill:none;stroke:#ffc3a3;stroke-linecap:round;stroke-linejoin:round;stroke-width:2px"/><path d="M233.19,39.3a61.29,61.29,0,0,0-25.38,104.36" style="fill:none;stroke:#ffc3a3;stroke-linecap:round;stroke-linejoin:round;stroke-width:2px"/><path d="M182.42,248a61.3,61.3,0,0,0,25.39-104.37" style="fill:none;stroke:#ffc3a3;stroke-linecap:round;stroke-linejoin:round;stroke-width:2px"/><path d="M182.42,248A61.3,61.3,0,0,0,157,352.4" style="fill:none;stroke:#ffc3a3;stroke-linecap:round;stroke-linejoin:round;stroke-width:2px"/><path d="M337.18,66.76A61.3,61.3,0,0,0,362.56-37.6" style="fill:none;stroke:#ffc3a3;stroke-linecap:round;stroke-linejoin:round;stroke-width:2px"/><path d="M337.18,66.76a61.3,61.3,0,0,0-25.39,104.37" style="fill:none;stroke:#ffc3a3;stroke-linecap:round;stroke-linejoin:round;stroke-width:2px"/><path d="M286.41,275.49a61.3,61.3,0,0,0,25.38-104.36" style="fill:none;stroke:#ffc3a3;stroke-linecap:round;stroke-linejoin:round;stroke-width:2px"/><path d="M286.41,275.49A61.31,61.31,0,0,0,261,379.86" style="fill:none;stroke:#ffc3a3;stroke-linecap:round;stroke-linejoin:round;stroke-width:2px"/></g><g style="clip-path:url(#b)"><path d="M0,66.76A61.24,61.24,0,0,0,43.49,22.08,61.25,61.25,0,0,0,25.34-37.6" style="fill:none;stroke:#ece7de;stroke-linecap:round;stroke-linejoin:round;stroke-width:2px"/><path d="M0,66.76A61.3,61.3,0,0,0-25.43,171.13" style="fill:none;stroke:#ece7de;stroke-linecap:round;stroke-linejoin:round;stroke-width:2px"/></g></svg>