<svg xmlns="http://www.w3.org/2000/svg" xmlns:xlink="http://www.w3.org/1999/xlink" viewBox="0 0 341.19 341.19"><defs><clipPath id="a"><rect width="341.19" height="341.19" transform="translate(341.19 341.19) rotate(180)" style="fill:none"/></clipPath></defs><rect width="341.19" height="341.19" style="fill:#b3b685"/><g style="clip-path:url(#a)"><path d="M189.67,41.83A61.27,61.27,0,0,0,233.21-2.85a61.23,61.23,0,0,0-18.16-59.68" style="fill:none;stroke:#bdc097;stroke-linecap:round;stroke-linejoin:round;stroke-width:2px"/><path d="M189.67,41.83A61.3,61.3,0,0,0,164.28,146.2" style="fill:none;stroke:#bdc097;stroke-linecap:round;stroke-linejoin:round;stroke-width:2px"/><path d="M138.9,250.57A61.3,61.3,0,0,0,164.28,146.2" style="fill:none;stroke:#bdc097;stroke-linecap:round;stroke-linejoin:round;stroke-width:2px"/><path d="M138.9,250.57a61.3,61.3,0,0,0-25.39,104.36" style="fill:none;stroke:#bdc097;stroke-linecap:round;stroke-linejoin:round;stroke-width:2px"/><path d="M85.68,14.37a61.25,61.25,0,0,0,43.54-44.68A61.27,61.27,0,0,0,111.07-90" style="fill:none;stroke:#bdc097;stroke-linecap:round;stroke-linejoin:round;stroke-width:2px"/><path d="M85.68,14.37A61.31,61.31,0,0,0,60.3,118.74" style="fill:none;stroke:#bdc097;stroke-linecap:round;stroke-linejoin:round;stroke-width:2px"/><path d="M34.91,223.1A61.3,61.3,0,0,0,60.3,118.74" style="fill:none;stroke:#bdc097;stroke-linecap:round;stroke-linejoin:round;stroke-width:2px"/><path d="M-15.86,431.83a61.25,61.25,0,0,0,43.54-44.68A61.26,61.26,0,0,0,9.53,327.47" style="fill:none;stroke:#bdc097;stroke-linecap:round;stroke-linejoin:round;stroke-width:2px"/><path d="M34.91,223.1A61.31,61.31,0,0,0,9.53,327.47" style="fill:none;stroke:#bdc097;stroke-linecap:round;stroke-linejoin:round;stroke-width:2px"/><path d="M293.66,69.3A61.31,61.31,0,0,0,319-35.07" style="fill:none;stroke:#bdc097;stroke-linecap:round;stroke-linejoin:round;stroke-width:2px"/><path d="M293.66,69.3a61.3,61.3,0,0,0-25.39,104.36" style="fill:none;stroke:#bdc097;stroke-linecap:round;stroke-linejoin:round;stroke-width:2px"/><path d="M242.89,278a61.31,61.31,0,0,0,25.38-104.37" style="fill:none;stroke:#bdc097;stroke-linecap:round;stroke-linejoin:round;stroke-width:2px"/><path d="M242.89,278A61.3,61.3,0,0,0,217.5,382.4" style="fill:none;stroke:#bdc097;stroke-linecap:round;stroke-linejoin:round;stroke-width:2px"/><path d="M346.87,305.49a61.3,61.3,0,0,0-25.38,104.37" style="fill:none;stroke:#bdc097;stroke-linecap:round;stroke-linejoin:round;stroke-width:2px"/></g></svg>