<svg xmlns="http://www.w3.org/2000/svg" xmlns:xlink="http://www.w3.org/1999/xlink" viewBox="0 0 341.19 341.19"><defs><clipPath id="a"><rect x="387.69" width="341.19" height="341.19" transform="translate(1116.56 341.19) rotate(180)" style="fill:none"/></clipPath><clipPath id="b"><rect width="341.19" height="341.19" transform="translate(341.19 341.19) rotate(180)" style="fill:none"/></clipPath></defs><g style="clip-path:url(#a)"><path d="M311.36,401.83a61.3,61.3,0,0,0,25.39-104.36" style="fill:none;stroke:#ffc3a3;stroke-linecap:round;stroke-linejoin:round;stroke-width:2px"/><path d="M362.13,193.1a61.31,61.31,0,0,0-25.38,104.37" style="fill:none;stroke:#ffc3a3;stroke-linecap:round;stroke-linejoin:round;stroke-width:2px"/></g><g style="clip-path:url(#b)"><path d="M179.67,11.83a61.27,61.27,0,0,0,43.54-44.68,61.23,61.23,0,0,0-18.16-59.68" style="fill:none;stroke:#ece7de;stroke-linecap:round;stroke-linejoin:round;stroke-width:2px"/><path d="M179.67,11.83A61.3,61.3,0,0,0,154.28,116.2" style="fill:none;stroke:#ece7de;stroke-linecap:round;stroke-linejoin:round;stroke-width:2px"/><path d="M128.9,220.57A61.3,61.3,0,0,0,154.28,116.2" style="fill:none;stroke:#ece7de;stroke-linecap:round;stroke-linejoin:round;stroke-width:2px"/><path d="M78.13,429.3a61.3,61.3,0,0,0,25.38-104.37" style="fill:none;stroke:#ece7de;stroke-linecap:round;stroke-linejoin:round;stroke-width:2px"/><path d="M128.9,220.57a61.3,61.3,0,0,0-25.39,104.36" style="fill:none;stroke:#ece7de;stroke-linecap:round;stroke-linejoin:round;stroke-width:2px"/><path d="M75.68-15.63A61.31,61.31,0,0,0,50.3,88.74" style="fill:none;stroke:#ece7de;stroke-linecap:round;stroke-linejoin:round;stroke-width:2px"/><path d="M24.91,193.1A61.3,61.3,0,0,0,50.3,88.74" style="fill:none;stroke:#ece7de;stroke-linecap:round;stroke-linejoin:round;stroke-width:2px"/><path d="M-25.86,401.83a61.25,61.25,0,0,0,43.54-44.68A61.26,61.26,0,0,0-.47,297.47" style="fill:none;stroke:#ece7de;stroke-linecap:round;stroke-linejoin:round;stroke-width:2px"/><path d="M24.91,193.1A61.31,61.31,0,0,0-.47,297.47" style="fill:none;stroke:#ece7de;stroke-linecap:round;stroke-linejoin:round;stroke-width:2px"/><path d="M283.66,39.3A61.26,61.26,0,0,0,327.19-5.38,61.27,61.27,0,0,0,309-65.07" style="fill:none;stroke:#ece7de;stroke-linecap:round;stroke-linejoin:round;stroke-width:2px"/><path d="M283.66,39.3a61.3,61.3,0,0,0-25.39,104.36" style="fill:none;stroke:#ece7de;stroke-linecap:round;stroke-linejoin:round;stroke-width:2px"/><path d="M232.89,248a61.31,61.31,0,0,0,25.38-104.37" style="fill:none;stroke:#ece7de;stroke-linecap:round;stroke-linejoin:round;stroke-width:2px"/><path d="M232.89,248A61.3,61.3,0,0,0,207.5,352.4" style="fill:none;stroke:#ece7de;stroke-linecap:round;stroke-linejoin:round;stroke-width:2px"/><path d="M336.87,275.49a61.3,61.3,0,0,0,25.39-104.36" style="fill:none;stroke:#ece7de;stroke-linecap:round;stroke-linejoin:round;stroke-width:2px"/><path d="M336.87,275.49a61.3,61.3,0,0,0-25.38,104.37" style="fill:none;stroke:#ece7de;stroke-linecap:round;stroke-linejoin:round;stroke-width:2px"/></g></svg>