<svg xmlns="http://www.w3.org/2000/svg" xmlns:xlink="http://www.w3.org/1999/xlink" viewBox="0 0 341.19 341.19"><defs><clipPath id="a"><rect x="-387.69" width="341.19" height="341.19" transform="translate(-434.19 341.19) rotate(180)" style="fill:none"/></clipPath><clipPath id="b"><rect width="341.19" height="341.19" transform="translate(341.19 341.19) rotate(180)" style="fill:none"/></clipPath></defs><g style="clip-path:url(#a)"><path d="M10,96.76A61.24,61.24,0,0,0,53.49,52.08,61.25,61.25,0,0,0,35.34-7.6" style="fill:none;stroke:#bdc097;stroke-linecap:round;stroke-linejoin:round;stroke-width:2px"/><path d="M10,96.76A61.3,61.3,0,0,0-15.43,201.13" style="fill:none;stroke:#bdc097;stroke-linecap:round;stroke-linejoin:round;stroke-width:2px"/><path d="M-40.81,305.49A61.24,61.24,0,0,0,2.72,260.81a61.26,61.26,0,0,0-18.15-59.68" style="fill:none;stroke:#bdc097;stroke-linecap:round;stroke-linejoin:round;stroke-width:2px"/></g><rect x="0.03" y="0.29" width="341" height="341" style="fill:#cfe0d9"/><g style="clip-path:url(#b)"><path d="M179.67-38.17A61.3,61.3,0,0,0,154.28,66.2" style="fill:none;stroke:#dce7e3;stroke-linecap:round;stroke-linejoin:round;stroke-width:2px"/><path d="M128.9,170.57A61.3,61.3,0,0,0,154.28,66.2" style="fill:none;stroke:#dce7e3;stroke-linecap:round;stroke-linejoin:round;stroke-width:2px"/><path d="M78.13,379.3a61.3,61.3,0,0,0,25.38-104.37" style="fill:none;stroke:#dce7e3;stroke-linecap:round;stroke-linejoin:round;stroke-width:2px"/><path d="M128.9,170.57a61.3,61.3,0,0,0-25.39,104.36" style="fill:none;stroke:#dce7e3;stroke-linecap:round;stroke-linejoin:round;stroke-width:2px"/><path d="M75.68-65.63A61.24,61.24,0,0,0,32.15-20.95,61.27,61.27,0,0,0,50.3,38.74" style="fill:none;stroke:#dce7e3;stroke-linecap:round;stroke-linejoin:round;stroke-width:2px"/><path d="M24.91,143.1A61.3,61.3,0,0,0,50.3,38.74" style="fill:none;stroke:#dce7e3;stroke-linecap:round;stroke-linejoin:round;stroke-width:2px"/><path d="M-25.86,351.83a61.25,61.25,0,0,0,43.54-44.68A61.26,61.26,0,0,0-.47,247.47" style="fill:none;stroke:#dce7e3;stroke-linecap:round;stroke-linejoin:round;stroke-width:2px"/><path d="M24.91,143.1A61.31,61.31,0,0,0-.47,247.47" style="fill:none;stroke:#dce7e3;stroke-linecap:round;stroke-linejoin:round;stroke-width:2px"/><path d="M283.66-10.7A61.3,61.3,0,0,0,258.27,93.66" style="fill:none;stroke:#dce7e3;stroke-linecap:round;stroke-linejoin:round;stroke-width:2px"/><path d="M232.89,198A61.31,61.31,0,0,0,258.27,93.66" style="fill:none;stroke:#dce7e3;stroke-linecap:round;stroke-linejoin:round;stroke-width:2px"/><path d="M182.12,406.76A61.3,61.3,0,0,0,207.5,302.4" style="fill:none;stroke:#dce7e3;stroke-linecap:round;stroke-linejoin:round;stroke-width:2px"/><path d="M232.89,198A61.3,61.3,0,0,0,207.5,302.4" style="fill:none;stroke:#dce7e3;stroke-linecap:round;stroke-linejoin:round;stroke-width:2px"/><path d="M336.87,225.49a61.3,61.3,0,0,0,25.39-104.36" style="fill:none;stroke:#dce7e3;stroke-linecap:round;stroke-linejoin:round;stroke-width:2px"/><path d="M286.1,434.23a61.3,61.3,0,0,0,25.39-104.37" style="fill:none;stroke:#dce7e3;stroke-linecap:round;stroke-linejoin:round;stroke-width:2px"/><path d="M336.87,225.49a61.3,61.3,0,0,0-25.38,104.37" style="fill:none;stroke:#dce7e3;stroke-linecap:round;stroke-linejoin:round;stroke-width:2px"/></g></svg>