<?xml version="1.0" encoding="utf-8"?>
<svg version="1.1" xmlns="http://www.w3.org/2000/svg" xmlns:xlink="http://www.w3.org/1999/xlink" x="0px" y="0px" viewBox="0 0 77 16" xml:space="preserve">
    <path class="fill" d="M17.8,15.6H0.3V4.7h17.5v2.2H2.5v6.6h15.3C17.8,13.5,17.8,15.6,17.8,15.6z"/>
    <path class="fill" d="M37.4,15.6H19.9V4.7h17.5V15.6z M35.2,13.5V6.9H22.1v6.6H35.2z"/>
    <path class="fill" d="M57.1,15.6H39.6V4.7h15.3V0.4h2.2V15.6z M54.9,13.5V6.9H41.8v6.6H54.9z"/>
    <path class="fill" d="M76.7,15.6H59.2V4.7h17.5v6.6H61.4v2.1h15.3V15.6z M74.5,9.1V6.9H61.4v2.2C61.4,9.1,74.5,9.1,74.5,9.1z"/>
</svg>
