<?xml version="1.0" standalone="no"?>
<!DOCTYPE svg PUBLIC "-//W3C//DTD SVG 20010904//EN"
 "http://www.w3.org/TR/2001/REC-SVG-20010904/DTD/svg10.dtd">
<svg version="1.0" xmlns="http://www.w3.org/2000/svg"
 width="266.000000pt" height="266.000000pt" viewBox="0 0 266.000000 266.000000"
 preserveAspectRatio="xMidYMid meet">
<metadata>
Created by potrace 1.14, written by Peter Selinger 2001-2017
</metadata>
<g transform="translate(0.000000,266.000000) scale(0.100000,-0.100000)"
fill="#000000" stroke="none">
<path d="M415 2465 c-140 -52 -204 -208 -157 -382 11 -40 17 -73 13 -74 -62
-4 -101 -14 -121 -28 -21 -16 -25 -26 -24 -67 1 -45 10 -154 20 -229 2 -16 6
-59 10 -94 11 -121 26 -135 136 -125 40 3 76 8 80 10 16 10 21 -29 21 -157 -2
-167 -23 -296 -99 -600 -60 -242 -65 -297 -29 -382 43 -103 156 -165 279 -153
57 5 110 18 463 110 171 45 211 50 373 51 202 0 211 -1 655 -120 160 -42 262
-52 328 -29 97 33 164 124 174 238 4 50 -1 87 -27 187 -99 381 -121 508 -121
706 -1 176 16 294 72 518 17 66 42 165 56 220 41 162 16 280 -74 354 -100 82
-195 78 -553 -23 -112 -31 -209 -55 -295 -71 -55 -11 -309 -14 -373 -5 -100
15 -115 19 -239 51 -65 17 -176 47 -248 65 -155 41 -262 50 -320 29z m305 -64
c63 -16 176 -45 250 -65 74 -19 149 -38 165 -41 152 -29 392 -26 531 6 27 6
57 12 67 14 10 2 103 27 205 54 103 27 215 55 249 62 136 25 234 -12 283 -109
42 -83 39 -135 -19 -363 -43 -169 -56 -226 -75 -326 -3 -11 -7 -43 -11 -70 -4
-26 -9 -59 -11 -73 -6 -34 -6 -303 0 -321 3 -8 7 -38 11 -67 7 -68 48 -258 81
-382 14 -52 27 -102 29 -111 2 -9 8 -34 14 -55 27 -97 3 -212 -56 -269 -52
-51 -109 -69 -191 -62 -64 6 -117 18 -437 102 -180 48 -289 63 -439 60 -172
-3 -250 -18 -541 -99 -71 -20 -143 -39 -160 -42 -16 -2 -44 -9 -61 -13 -56
-15 -156 -10 -196 10 -87 44 -133 127 -130 231 1 21 22 117 47 214 86 335 98
408 101 616 2 115 8 196 15 209 10 19 7 123 -6 200 -2 13 -6 49 -9 79 -3 30
-8 82 -12 114 -7 66 -27 105 -55 107 -11 1 -25 2 -31 3 -7 0 -21 30 -31 66
-21 74 -18 189 4 230 74 135 169 155 419 91z"/>
</g>
</svg>
