<?xml version="1.0" standalone="no"?>
<!DOCTYPE svg PUBLIC "-//W3C//DTD SVG 20010904//EN"
 "http://www.w3.org/TR/2001/REC-SVG-20010904/DTD/svg10.dtd">
<svg version="1.0" xmlns="http://www.w3.org/2000/svg"
 width="260.000000pt" height="260.000000pt" viewBox="0 0 260.000000 260.000000"
 preserveAspectRatio="xMidYMid meet">
<metadata>
Created by potrace 1.11, written by Peter Selinger 2001-2013
</metadata>
<g transform="translate(0.000000,260.000000) scale(0.100000,-0.100000)"
fill="#000000" stroke="none">
<path d="M0 1300 l0 -1300 1300 0 1300 0 0 1300 0 1300 -1300 0 -1300 0 0
-1300z m1408 650 c111 -26 198 -95 248 -195 26 -55 29 -69 29 -165 0 -95 -3
-110 -28 -160 -34 -67 -60 -90 -101 -90 -79 0 -102 58 -56 144 60 116 25 236
-85 287 -34 16 -66 19 -202 19 l-163 0 0 -72 1 -73 213 -260 c118 -143 275
-332 349 -420 l135 -160 -101 -3 -101 -3 -32 33 c-17 18 -125 143 -239 278
-114 135 -212 247 -216 248 -5 2 -9 -123 -9 -277 l0 -281 -80 0 -80 0 0 580 0
580 238 0 c130 0 256 -5 280 -10z"/>
</g>
</svg>
